<svg width="32" height="32" viewBox="0 0 32 32" fill="none" xmlns="http://www.w3.org/2000/svg">
<path d="M10.7365 1.11765H20.0843L10.3806 29.8687C10.281 30.1642 10.0911 30.421 9.83775 30.6029C9.58441 30.7848 9.28038 30.8826 8.9685 30.8826H1.69384C1.45757 30.8826 1.2247 30.8263 1.01447 30.7185C0.804245 30.6107 0.6227 30.4544 0.48484 30.2625C0.346925 30.0706 0.256727 29.8487 0.221725 29.615C0.186722 29.3813 0.207923 29.1427 0.28357 28.9188L9.3244 2.13135C9.42415 1.83587 9.61405 1.5791 9.86735 1.39718C10.1207 1.21526 10.4246 1.11733 10.7365 1.11719V1.11765Z" fill="url(#paint0_linear_1369_246)"/>
<path d="M24.3199 20.4019H9.49665C9.35881 20.4016 9.22409 20.4429 9.11006 20.5203C8.99603 20.5977 8.90798 20.7078 8.8574 20.836C8.80682 20.9642 8.79606 21.1047 8.82652 21.2391C8.85698 21.3736 8.92724 21.4957 9.02815 21.5896L18.5532 30.4801C18.8306 30.7386 19.1957 30.8824 19.5749 30.8826H27.9684L24.3199 20.4019Z" fill="#0078D4"/>
<path d="M10.7364 1.11769C10.421 1.11636 10.1136 1.21595 9.85892 1.4019C9.60427 1.58785 9.41578 1.8504 9.32104 2.15115L0.294692 28.8945C0.214166 29.1192 0.188918 29.3599 0.22108 29.5964C0.253243 29.8329 0.341872 30.0582 0.479473 30.2532C0.617075 30.4482 0.799605 30.6072 1.01163 30.7167C1.22366 30.8263 1.45895 30.8832 1.69761 30.8826H9.16021C9.43816 30.833 9.69794 30.7105 9.91302 30.5276C10.1281 30.3447 10.2908 30.108 10.3844 29.8416L12.1843 24.5367L18.6141 30.5336C18.8835 30.7565 19.2215 30.8797 19.5711 30.8826H27.9334L24.2658 20.4019L13.5744 20.4044L20.1179 1.11769H10.7364Z" fill="url(#paint1_linear_1369_246)"/>
<path d="M22.6759 2.13C22.5763 1.83497 22.3866 1.57862 22.1336 1.39702C21.8806 1.21543 21.5771 1.11773 21.2657 1.11768H10.8479C11.1593 1.11778 11.4628 1.2155 11.7157 1.39709C11.9686 1.57868 12.1583 1.83501 12.2579 2.13L21.299 28.9186C21.3747 29.1425 21.396 29.3812 21.361 29.615C21.3261 29.8487 21.236 30.0708 21.0982 30.2628C20.9604 30.4548 20.7788 30.6112 20.5685 30.7191C20.3583 30.8269 20.1253 30.8832 19.889 30.8831H30.3072C30.5434 30.8829 30.7763 30.8265 30.9864 30.7186C31.1966 30.6107 31.378 30.4543 31.5158 30.2623C31.6535 30.0704 31.7436 29.8484 31.7786 29.6148C31.8136 29.3811 31.7925 29.1425 31.717 28.9186L22.6759 2.13Z" fill="url(#paint2_linear_1369_246)"/>
<defs>
<linearGradient id="paint0_linear_1369_246" x1="14.1436" y1="3.32334" x2="4.43579" y2="32.0022" gradientUnits="userSpaceOnUse">
<stop stop-color="#114A8B"/>
<stop offset="1" stop-color="#0669BC"/>
</linearGradient>
<linearGradient id="paint1_linear_1369_246" x1="17.1758" y1="16.6885" x2="14.9304" y2="17.4477" gradientUnits="userSpaceOnUse">
<stop stopOpacity="0.3"/>
<stop offset="0.071" stopOpacity="0.2"/>
<stop offset="0.321" stopOpacity="0.1"/>
<stop offset="0.623" stopOpacity="0.05"/>
<stop offset="1" stopOpacity="0"/>
</linearGradient>
<linearGradient id="paint2_linear_1369_246" x1="15.941" y1="2.48682" x2="26.5973" y2="30.8769" gradientUnits="userSpaceOnUse">
<stop stop-color="#3CCBF4"/>
<stop offset="1" stop-color="#2892DF"/>
</linearGradient>
</defs>
</svg>
