<svg width="32" height="24" viewBox="0 0 32 24" fill="none" xmlns="http://www.w3.org/2000/svg">
<g clip-path="url(#clip0_1369_241)">
<path d="M31.3397 8.81213C30.6191 8.31213 28.9677 8.12463 27.6767 8.37463C27.5267 7.12463 26.8361 6.031 25.6351 5.06225L24.9446 4.56225L24.4641 5.281C23.8637 6.2185 23.5635 7.531 23.6535 8.781C23.6835 9.21838 23.8336 9.99963 24.284 10.6871C23.8637 10.9371 22.993 11.2496 21.8521 11.2496H0.144585L0.0845852 11.4996C-0.125665 12.7495 -0.125665 16.6556 2.33633 19.6555C4.19783 21.9366 6.96008 23.0929 10.593 23.0929C18.4592 23.0929 24.284 19.3116 27.0162 12.4683C28.0971 12.4995 30.409 12.4683 31.58 10.1245C31.61 10.062 31.67 9.937 31.8801 9.46838L32.0002 9.21838L31.3397 8.81213ZM17.4985 0H14.196V3.12488H17.4985V0ZM17.4985 3.74988H14.196V6.87475H17.4985V3.74988ZM13.5953 3.74988H10.2928V6.87475H13.5953V3.74988ZM9.69221 3.74988H6.38959V6.87475H9.69221V3.74988ZM5.78909 7.49975H2.48646V10.6246H5.78896L5.78909 7.49975ZM9.69221 7.49975H6.38959V10.6246H9.69221V7.49975ZM13.5953 7.49975H10.2928V10.6246H13.5953V7.49975ZM17.4986 7.49975H14.1958V10.6246H17.4986V7.49975ZM21.4017 7.49975H18.099V10.6246H21.4017V7.49975Z" fill="#2396ED"/>
</g>
<defs>
<clipPath id="clip0_1369_241">
<rect width="32" height="23.125" fill="white"/>
</clipPath>
</defs>
</svg>
