<svg width="32" height="32" viewBox="0 0 32 32" fill="none" xmlns="http://www.w3.org/2000/svg">
<g clip-path="url(#clip0_1369_243)">
<path d="M15.8889 0.477812C15.6061 0.492164 15.329 0.562369 15.0739 0.684312L3.94868 5.99981C3.66076 6.13733 3.40778 6.3374 3.20852 6.58518C3.00925 6.83296 2.86883 7.12208 2.79768 7.43106L0.0534314 19.3711C-0.00992635 19.6461 -0.0170165 19.931 0.0325803 20.2088C0.0821771 20.4867 0.187453 20.7518 0.342181 20.9886C0.379726 21.0465 0.420108 21.1026 0.463181 21.1566L8.16318 30.7306C8.36249 30.9783 8.61551 31.1783 8.90346 31.3158C9.1914 31.4532 9.50687 31.5246 9.82643 31.5246L22.1749 31.5216C22.4944 31.5218 22.8098 31.4507 23.0977 31.3135C23.3856 31.1763 23.6387 30.9765 23.8382 30.7291L31.5354 21.1538C31.7348 20.906 31.8754 20.6167 31.9466 20.3076C32.0178 19.9985 32.0178 19.6774 31.9467 19.3683L29.1977 7.42831C29.1266 7.11928 28.9862 6.83012 28.7869 6.58229C28.5876 6.33447 28.3346 6.13435 28.0467 5.99681L16.9204 0.684312C16.5995 0.5309 16.2448 0.459895 15.8889 0.477812Z" fill="#326CE5"/>
<path d="M15.9937 4.53564V4.53814C15.6257 4.54164 15.3277 4.87214 15.3277 5.28114C15.3277 5.28814 15.3289 5.29414 15.3289 5.29964C15.3284 5.35514 15.3259 5.42214 15.3277 5.47064C15.3364 5.70714 15.3877 5.88764 15.4189 6.10439C15.4614 6.45939 15.4727 6.74114 15.4749 7.02614L15.4839 6.98514C15.4799 6.7854 15.4701 6.58581 15.4544 6.38664C15.4892 6.69364 15.5144 6.97764 15.5009 7.23464C15.4972 7.15339 15.4857 7.06539 15.4844 6.98914L15.4754 7.03014C15.4762 7.11689 15.4994 7.22764 15.4927 7.31089C15.4774 7.38339 15.4199 7.43464 15.3759 7.49639L15.3697 7.52664C15.4129 7.46989 15.4582 7.41564 15.4847 7.35189C15.4512 7.45764 15.3797 7.55089 15.3079 7.62539C15.3279 7.59439 15.3444 7.55989 15.3679 7.52914L15.3744 7.49914C15.3382 7.54989 15.3177 7.61339 15.2782 7.65164L15.2767 7.65314L15.2607 7.93314C14.8571 7.96666 14.4564 8.02814 14.0614 8.11715C12.3967 8.49375 10.8823 9.35856 9.71191 10.6009C9.63791 10.5504 9.51191 10.4609 9.47441 10.4329L9.47316 10.4316L9.47066 10.4321C9.35116 10.4481 9.23316 10.4839 9.07816 10.3939C8.78141 10.1939 8.51041 9.91714 8.18216 9.58389C8.03191 9.42464 7.92291 9.27239 7.74366 9.11864C7.70291 9.08339 7.64116 9.03614 7.59566 9.00039C7.46264 8.89324 7.29881 8.83148 7.12816 8.82414C6.92191 8.81714 6.72316 8.89764 6.59316 9.06089C6.36191 9.35089 6.43616 9.79414 6.75766 10.0509L6.76766 10.0574C6.81116 10.0931 6.86516 10.1389 6.90566 10.1689C7.09616 10.3091 7.26991 10.3811 7.45816 10.4921C7.85666 10.7381 8.18566 10.9416 8.44716 11.1869C8.54766 11.2936 8.56566 11.4844 8.57966 11.5681V11.5701L8.79141 11.7586C7.65116 13.4771 7.12266 15.5986 7.43341 17.7601L7.15766 17.8411L7.15666 17.8426C7.08291 17.9379 6.97866 18.0856 6.87291 18.1294C6.53141 18.2369 6.14591 18.2764 5.68041 18.3251C5.46241 18.3434 5.27391 18.3329 5.04141 18.3769C4.99016 18.3869 4.91891 18.4049 4.86316 18.4179L4.85741 18.4194L4.84741 18.4221C4.45241 18.5179 4.19741 18.8814 4.27991 19.2401C4.36166 19.5989 4.74816 19.8166 5.14591 19.7309L5.15566 19.7294H5.15616C5.16116 19.7281 5.16566 19.7256 5.16866 19.7249C5.22366 19.7129 5.29266 19.6996 5.34116 19.6864C5.56941 19.6251 5.73466 19.5356 5.93941 19.4574C6.37941 19.2994 6.74391 19.1674 7.09866 19.1161C7.24416 19.1046 7.39966 19.2066 7.47791 19.2504L7.47991 19.2514L7.76791 19.2021C8.43641 21.2706 9.83441 22.9421 11.6044 23.9926L11.4844 24.2806L11.4852 24.2831C11.5287 24.3956 11.5762 24.5474 11.5444 24.6561C11.4154 24.9901 11.1944 25.3434 10.9424 25.7376C10.8204 25.9196 10.6949 26.0614 10.5849 26.2704C10.5582 26.3206 10.5249 26.3971 10.4994 26.4496C10.3269 26.8184 10.4534 27.2439 10.7852 27.4036C11.1189 27.5644 11.5327 27.3946 11.7119 27.0254L11.7137 27.0234V27.0209C11.7387 26.9691 11.7742 26.9014 11.7959 26.8524C11.8904 26.6359 11.9222 26.4506 11.9884 26.2421H11.9877C12.1642 25.7989 12.2612 25.3354 12.5024 25.0476C12.5674 24.9701 12.6744 24.9396 12.7864 24.9096L12.7889 24.9086L12.9389 24.6376C14.9138 25.3969 17.0992 25.4025 19.0779 24.6531C19.1209 24.7289 19.1974 24.8694 19.2187 24.9056L19.2197 24.9071L19.2217 24.9081C19.3362 24.9454 19.4587 24.9639 19.5592 25.1121C19.7397 25.4214 19.8637 25.7879 20.0147 26.2309C20.0809 26.4389 20.1139 26.6246 20.2084 26.8411C20.2302 26.8911 20.2659 26.9599 20.2909 27.0121C20.4697 27.3826 20.8847 27.5529 21.2192 27.3921C21.5507 27.2321 21.6772 26.8071 21.5049 26.4384C21.4794 26.3859 21.4442 26.3089 21.4179 26.2586C21.3077 26.0496 21.1822 25.9094 21.0604 25.7274C20.8079 25.3331 20.5997 25.0061 20.4704 24.6719C20.4172 24.5006 20.4794 24.3959 20.5219 24.2831L20.5234 24.2796L20.5209 24.2771C20.5121 24.2639 20.5046 24.2498 20.4984 24.2351C20.4878 24.2112 20.4778 24.1871 20.4684 24.1626C20.4484 24.1101 20.4284 24.0521 20.4124 24.0136C22.2519 22.9261 23.6089 21.1924 24.2474 19.1899C24.3342 19.2034 24.4799 19.2286 24.5274 19.2381L24.5299 19.2386L24.5322 19.2376C24.6327 19.1714 24.7222 19.0861 24.9009 19.1004C25.2557 19.1516 25.6199 19.2839 26.0604 19.4419C26.2647 19.5199 26.4302 19.6111 26.6587 19.6721C26.7072 19.6851 26.7762 19.6974 26.8312 19.7094C26.8342 19.7101 26.8384 19.7124 26.8437 19.7136H26.8442L26.8542 19.7146C27.2517 19.7999 27.6384 19.5826 27.7202 19.2239C27.8019 18.8651 27.5474 18.5019 27.1522 18.4066C27.0954 18.3936 27.0144 18.3714 26.9584 18.3606C26.7259 18.3166 26.5377 18.3276 26.3192 18.3094C25.8542 18.2606 25.4687 18.2211 25.1267 18.1136C24.9899 18.0604 24.8912 17.8956 24.8422 17.8266L24.8407 17.8251L24.5742 17.7476C24.7166 16.7123 24.6692 15.6597 24.4342 14.6414C24.1986 13.6129 23.7764 12.6363 23.1884 11.7601C23.2579 11.6971 23.3847 11.5849 23.4214 11.5511L23.4232 11.5496V11.5471C23.4342 11.4271 23.4247 11.3046 23.5469 11.1736C23.8082 10.9286 24.1379 10.7244 24.5362 10.4789C24.7247 10.3679 24.8997 10.2961 25.0897 10.1556C25.1332 10.1236 25.1917 10.0736 25.2367 10.0374C25.5582 9.78089 25.6327 9.3379 25.4012 9.04765C25.1699 8.75765 24.7217 8.73089 24.4004 8.98714C24.3549 9.02339 24.2929 9.07014 24.2519 9.10539C24.0727 9.25989 23.9619 9.41189 23.8119 9.57114C23.4837 9.90489 23.2124 10.1826 22.9154 10.3826C22.7887 10.4561 22.6009 10.4309 22.5147 10.4256H22.5127L22.2617 10.6054C20.8179 9.09339 18.8542 8.12639 16.7392 7.93739C16.7329 7.83961 16.7276 7.74177 16.7232 7.64389V7.64189L16.7217 7.64039C16.6342 7.55714 16.5317 7.48789 16.5057 7.31089V7.31039C16.4769 6.95339 16.5249 6.56864 16.5807 6.10439C16.6119 5.88764 16.6637 5.70689 16.6722 5.47064C16.6744 5.41664 16.6709 5.33889 16.6709 5.28114C16.6709 4.86989 16.3702 4.53564 15.9989 4.53564H15.9937ZM7.19991 8.84414C7.23524 8.84914 7.27008 8.85631 7.30441 8.86564C7.27013 8.85601 7.23521 8.84882 7.19991 8.84414ZM15.1594 9.71289L14.9627 13.1954L14.9484 13.2026L14.9479 13.2059C14.9474 13.2184 14.9444 13.2296 14.9429 13.2416C14.9346 13.3166 14.9123 13.3892 14.8772 13.4559C14.868 13.4736 14.8579 13.4908 14.8469 13.5076C14.8014 13.5741 14.7426 13.6304 14.6744 13.6731C14.6569 13.6844 14.6377 13.6931 14.6189 13.7026C14.5504 13.7351 14.4763 13.7543 14.4007 13.7591C14.3894 13.7599 14.3787 13.7626 14.3674 13.7626C14.3549 13.7626 14.3439 13.7571 14.3317 13.7561C14.2485 13.7482 14.168 13.7223 14.0959 13.6801C14.0847 13.6736 14.0724 13.6699 14.0617 13.6629L14.0602 13.6684L14.0612 13.6629C14.0502 13.6561 14.0357 13.6589 14.0252 13.6511L14.0222 13.6486L14.0167 13.6521L11.1614 11.6279C11.1847 11.6051 11.2094 11.5844 11.2332 11.5619C11.4852 11.3221 11.7552 11.1019 12.0407 10.9031C12.0999 10.8619 12.1589 10.8201 12.2194 10.7806C12.5232 10.5825 12.8422 10.4088 13.1734 10.2611C13.2334 10.2344 13.2952 10.2101 13.3559 10.1849C13.6839 10.0495 14.0219 9.93988 14.3669 9.85689C14.3969 9.84939 14.4264 9.84014 14.4569 9.83339C14.6009 9.80089 14.7474 9.78189 14.8932 9.75864L14.8947 9.75239H14.8957L14.8942 9.75864C14.9829 9.74464 15.0704 9.72364 15.1594 9.71289ZM16.8409 9.71339C16.8902 9.71939 16.9384 9.73039 16.9874 9.73764C17.2537 9.77708 17.5174 9.83183 17.7774 9.90164C17.8804 9.92931 17.9825 9.95931 18.0837 9.99164C18.3419 10.0742 18.595 10.1717 18.8419 10.2836C18.9356 10.3261 19.0282 10.3707 19.1199 10.4174C19.3637 10.5419 19.5999 10.6807 19.8274 10.8329C19.9131 10.8906 19.9977 10.9503 20.0812 11.0121C20.299 11.1728 20.5074 11.3459 20.7052 11.5306C20.7412 11.5641 20.7794 11.5949 20.8147 11.6294L17.9782 13.6404L17.9682 13.6366L17.9657 13.6386C17.9544 13.6466 17.9422 13.6499 17.9307 13.6571C17.8636 13.6996 17.7885 13.728 17.7102 13.7406C17.6909 13.7436 17.6719 13.7481 17.6527 13.7489C17.568 13.7523 17.4835 13.7372 17.4052 13.7049C17.3823 13.696 17.3602 13.6853 17.3389 13.6731C17.2659 13.6328 17.2023 13.5774 17.1524 13.5106C17.1399 13.4934 17.1304 13.4741 17.1199 13.4556C17.0816 13.3871 17.0572 13.3118 17.0479 13.2339C17.0464 13.2201 17.0414 13.2081 17.0404 13.1941V13.1914L17.0377 13.1899L16.8409 9.71339ZM23.7589 12.7694C23.8809 13.0179 23.9907 13.2716 24.0882 13.5306C23.9905 13.2718 23.8806 13.0178 23.7589 12.7694ZM10.1149 12.9419L12.7224 15.2739L12.7194 15.2879L12.7219 15.2899C12.9569 15.4941 12.9894 15.8474 12.7952 16.0906C12.7882 16.0994 12.7782 16.1049 12.7707 16.1131C12.7037 16.1874 12.6188 16.2433 12.5242 16.2756C12.5134 16.2794 12.5047 16.2864 12.4939 16.2894L12.4904 16.2899L12.4874 16.3016L9.14566 17.2666C9.14066 17.2204 9.14066 17.1741 9.13641 17.1279C9.11147 16.85 9.10379 16.5708 9.11341 16.2919C9.11658 16.1952 9.12183 16.0987 9.12916 16.0024C9.15015 15.7247 9.18831 15.4486 9.24341 15.1756C9.26358 15.074 9.28633 14.9727 9.31166 14.8719C9.3779 14.6036 9.46055 14.3396 9.55916 14.0814C9.59416 13.9891 9.63149 13.8976 9.67116 13.8071C9.78143 13.5507 9.90751 13.3013 10.0487 13.0604C10.0712 13.0214 10.0912 12.9804 10.1149 12.9419ZM21.8654 12.9436C21.8897 12.9831 21.9094 13.0246 21.9329 13.0644C22.0754 13.3073 22.2032 13.5586 22.3154 13.8169C22.3529 13.9034 22.3899 13.9904 22.4239 14.0784C22.5274 14.3468 22.6142 14.6213 22.6839 14.9004C22.6952 14.9441 22.7099 14.9869 22.7199 15.0311C22.8924 15.7816 22.9349 16.5309 22.8644 17.2551L19.5059 16.2876L19.5032 16.2734L19.4997 16.2724C19.4884 16.2694 19.4787 16.2639 19.4679 16.2601C19.3954 16.2352 19.3284 16.1966 19.2704 16.1464C19.2557 16.1337 19.2416 16.1204 19.2279 16.1064C19.1733 16.0469 19.1315 15.9768 19.1052 15.9004C19.0984 15.8809 19.0942 15.8609 19.0894 15.8406C19.073 15.7674 19.0704 15.6918 19.0819 15.6176C19.0842 15.6054 19.0844 15.5936 19.0869 15.5814C19.0894 15.5701 19.0964 15.5604 19.0994 15.5491C19.1272 15.4547 19.1788 15.369 19.2492 15.3001C19.2577 15.2919 19.2627 15.2811 19.2717 15.2734L19.2742 15.2709L19.2727 15.2634L21.8654 12.9436ZM24.1724 13.7699C24.2552 14.0112 24.3272 14.2561 24.3884 14.5044C24.3272 14.2565 24.2551 14.0115 24.1724 13.7699ZM15.4664 15.4579H16.5319L17.1944 16.2864L16.9569 17.3196L15.9994 17.7796L15.0402 17.3176L14.8019 16.2846L15.4664 15.4579ZM18.8982 18.3066C18.9432 18.3041 18.9874 18.3086 19.0314 18.3166L19.0349 18.3174L19.0407 18.3099L22.4977 18.8944C22.4817 18.9394 22.4609 18.9821 22.4439 19.0269C22.3455 19.2843 22.232 19.5356 22.1039 19.7796C22.0566 19.8703 22.0072 19.9598 21.9557 20.0481C21.8151 20.2878 21.6604 20.5189 21.4924 20.7401C21.4317 20.8201 21.3694 20.8986 21.3054 20.9754C21.1268 21.1893 20.9357 21.3923 20.7329 21.5834C20.6602 21.6517 20.5859 21.7184 20.5099 21.7834C20.3001 21.964 20.0797 22.1319 19.8499 22.2864C19.8099 22.3131 19.7724 22.3426 19.7322 22.3686L18.3909 19.1269L18.3947 19.1214L18.3937 19.1186C18.3887 19.1074 18.3872 19.0956 18.3829 19.0844C18.3578 19.0131 18.3463 18.9377 18.3492 18.8621C18.3502 18.8419 18.3507 18.8216 18.3537 18.8016C18.366 18.7226 18.3945 18.6468 18.4372 18.5791C18.4484 18.5611 18.4617 18.5449 18.4747 18.5281C18.5218 18.4698 18.5795 18.4208 18.6447 18.3836C18.6554 18.3776 18.6644 18.3699 18.6754 18.3646C18.7477 18.3299 18.8232 18.3101 18.8982 18.3066ZM13.0707 18.3206L13.0739 18.3211C13.0814 18.3211 13.0889 18.3231 13.0969 18.3236C13.2075 18.3311 13.3138 18.3696 13.4034 18.4349C13.4206 18.4472 13.4369 18.4604 13.4524 18.4744C13.5347 18.5485 13.5945 18.6443 13.6247 18.7509C13.6267 18.7584 13.6302 18.7656 13.6322 18.7734C13.6597 18.8931 13.6484 19.0184 13.5997 19.1311L13.5984 19.1341L13.6084 19.1466L12.2809 22.3559C12.2422 22.3309 12.2059 22.3029 12.1682 22.2771C11.9384 22.1228 11.718 21.9549 11.5082 21.7744C11.4325 21.7091 11.3582 21.6421 11.2854 21.5736C11.0844 21.3844 10.8947 21.1833 10.7174 20.9716C10.6524 20.8936 10.5891 20.8144 10.5274 20.7339C10.3627 20.5176 10.2108 20.2919 10.0724 20.0579C10.0179 19.9656 9.96567 19.872 9.91566 19.7771C9.78937 19.5383 9.67701 19.2923 9.57916 19.0404C9.56166 18.9951 9.54066 18.9514 9.52416 18.9056L12.9509 18.3241L12.9567 18.3316L12.9602 18.3304C12.9968 18.3237 13.0335 18.3205 13.0707 18.3206ZM15.9782 19.7309C15.9927 19.7304 16.0067 19.7341 16.0212 19.7346C16.0856 19.7373 16.1492 19.7507 16.2092 19.7744C16.2227 19.7796 16.2372 19.7819 16.2502 19.7884V19.7889C16.3613 19.8414 16.4527 19.9281 16.5109 20.0364L16.5124 20.0394H16.5257L18.2149 23.0926C18.1459 23.1156 18.0757 23.1359 18.0059 23.1566C17.9233 23.1813 17.8403 23.2043 17.7569 23.2259C17.6862 23.2444 17.6159 23.2634 17.5444 23.2796C17.5134 23.2869 17.4819 23.2911 17.4504 23.2976C17.1062 23.3711 16.7568 23.418 16.4054 23.4379C16.3354 23.4419 16.2659 23.4466 16.1959 23.4486C15.835 23.4584 15.4739 23.4398 15.1159 23.3929C15.0459 23.3839 14.9759 23.3716 14.9064 23.3604C14.5628 23.3049 14.2239 23.2234 13.8927 23.1166C13.8609 23.1064 13.8284 23.0986 13.7967 23.0879L15.4822 20.0409H15.4847L15.4864 20.0379C15.4929 20.0259 15.5027 20.0166 15.5099 20.0054C15.5499 19.9425 15.6013 19.8877 15.6614 19.8436C15.6819 19.8286 15.7036 19.815 15.7264 19.8026C15.7925 19.7678 15.8646 19.7455 15.9389 19.7371C15.9524 19.7359 15.9647 19.7314 15.9782 19.7309ZM18.9204 24.6949C18.6529 24.7902 18.3814 24.8721 18.1059 24.9406C18.3812 24.872 18.6531 24.79 18.9204 24.6949Z" fill="white"/>
</g>
<defs>
<clipPath id="clip0_1369_243">
<rect width="32" height="32" fill="white"/>
</clipPath>
</defs>
</svg>
