<svg width="32" height="32" viewBox="0 0 32 32" fill="none" xmlns="http://www.w3.org/2000/svg">
<g clip-path="url(#clip0_1369_239)">
<path d="M18.8307 0.0998594C18.6062 0.0998594 18.3817 0.149609 18.1822 0.224359C18.6062 0.498859 18.8307 0.872859 18.9555 1.29686C18.9555 1.34686 18.9805 1.39686 18.9805 1.44661C18.9805 1.49661 19.0055 1.54636 19.0055 1.59611C19.0305 2.31961 18.8057 2.41936 18.6562 2.84336C18.4067 3.39186 18.4818 3.99061 18.781 4.46436C18.806 4.51436 18.831 4.58936 18.8808 4.63911C18.5565 2.54411 20.3022 2.24461 20.6265 1.59611C20.6515 1.02261 20.1777 0.648609 19.8035 0.374109C19.4295 0.149609 19.13 0.0996094 18.831 0.0996094L18.8307 0.0998594ZM21.45 0.548359C21.425 0.747859 21.45 0.698109 21.425 0.797859C21.425 0.872609 21.425 0.947359 21.4 1.02236C21.375 1.09711 21.375 1.14711 21.35 1.22186C21.325 1.29661 21.3002 1.34661 21.2752 1.42136C21.2502 1.47136 21.2253 1.52111 21.2003 1.59586C21.1755 1.62086 21.1505 1.67086 21.1257 1.69586C21.1007 1.72086 21.1008 1.74561 21.0758 1.77061C21.0258 1.82061 21.0008 1.89511 20.951 1.94511L20.8015 2.09486C20.7515 2.14486 20.7015 2.19461 20.6518 2.21936C20.4773 2.34436 20.2778 2.44386 20.103 2.56861C20.053 2.61861 19.9782 2.64361 19.9285 2.69336C19.8785 2.74336 19.8285 2.76836 19.7787 2.81811L19.6292 2.96761C19.5792 3.01761 19.5292 3.06761 19.5042 3.14236C19.4545 3.19236 19.4295 3.26711 19.3797 3.31686C19.3547 3.39186 19.3298 3.44161 19.28 3.51636C19.255 3.59136 19.23 3.64136 19.205 3.71586C19.18 3.79086 19.1553 3.86561 19.1553 3.91536C19.1553 3.94036 19.1553 3.99036 19.1303 4.01536C19.1303 4.04036 19.1302 4.09011 19.1052 4.11511V4.46411C19.1052 4.53911 19.1053 4.58911 19.1303 4.66361C19.1303 4.73861 19.1553 4.78861 19.1803 4.86336C19.2053 4.93811 19.2303 4.98786 19.2553 5.06286C19.28 5.11286 19.305 5.13761 19.305 5.18761L17.4093 4.46411C17.0966 4.36937 16.7805 4.28623 16.4618 4.21486C16.287 4.16486 16.1125 4.13986 15.9377 4.08986C15.4429 3.99079 14.9434 3.91595 14.4412 3.86561H14.3912C13.8925 3.81561 13.4188 3.79061 12.92 3.79061C12.5458 3.79061 12.1965 3.81561 11.8475 3.84061C11.3485 3.86561 10.85 3.94061 10.351 4.01536L9.97675 4.09011C9.7275 4.14011 9.478 4.18986 9.2285 4.26461C9.10375 4.28961 8.97925 4.33961 8.8545 4.36461C8.72975 4.41436 8.605 4.46411 8.50525 4.51411C8.4055 4.56411 8.33075 4.58911 8.231 4.63886C8.206 4.63886 8.206 4.63886 8.181 4.66386C8.106 4.71361 8.0315 4.73861 7.9565 4.78836C7.9315 4.78836 7.9065 4.81336 7.9065 4.81336C7.807 4.86336 7.732 4.91336 7.65725 4.93811C7.60725 4.96311 7.5325 4.98811 7.48275 5.01311C7.45775 5.03786 7.43275 5.03786 7.40775 5.06286C7.333 5.11286 7.25825 5.13761 7.18325 5.18736C7.1085 5.23736 7.03375 5.26236 6.98375 5.31236C6.93375 5.36211 6.859 5.38711 6.80925 5.43686C6.80925 5.43686 6.78425 5.43686 6.78425 5.46186C6.73425 5.48686 6.6845 5.53686 6.63475 5.58661L6.60975 5.61161C6.55975 5.63661 6.53475 5.68636 6.485 5.71136C6.46 5.71136 6.46 5.73636 6.435 5.73636C6.38525 5.76136 6.36025 5.81111 6.3105 5.83586C6.3105 5.86086 6.2855 5.86086 6.2855 5.86086L6.13575 6.01061L6.11075 6.03561L5.96125 6.18511C5.96125 6.18511 5.96125 6.21011 5.93625 6.21011L5.8115 6.33486C5.7865 6.35986 5.7615 6.35986 5.7615 6.38486L5.612 6.53436C5.612 6.55936 5.587 6.55936 5.587 6.58436L5.3875 6.78361L5.3625 6.80861C5.238 6.95836 5.08825 7.08311 4.93875 7.20786C4.78925 7.33261 4.63925 7.45711 4.46475 7.58186C4.29025 7.70661 4.1405 7.80636 3.966 7.90611C3.7915 8.00586 3.61675 8.08061 3.44225 8.15561C3.2675 8.23036 3.093 8.30511 2.9185 8.35511C2.56925 8.43011 2.22 8.57961 1.92075 8.60436C1.92075 8.47986 1.84575 8.50461 1.771 8.50461C1.69625 8.52961 1.6215 8.52961 1.5715 8.55461C1.4965 8.57961 1.44675 8.60461 1.372 8.62961C1.30091 8.65265 1.23367 8.68619 1.1725 8.72911C1.1225 8.77911 1.04775 8.80411 0.998 8.85411C0.948 8.90386 0.873 8.95361 0.82325 9.00361C0.77325 9.05361 0.6985 9.10336 0.64875 9.15311C0.59875 9.20311 0.54875 9.25311 0.499 9.32786C0.449 9.40261 0.39925 9.45236 0.37425 9.52736C0.3245 9.57736 0.2995 9.65211 0.24975 9.72686C0.22475 9.80186 0.17475 9.87636 0.14975 9.95136L0.075 10.1759C0.05 10.2506 0.05 10.3004 0.025 10.3754V10.4004C0 10.4754 0 10.5749 0 10.6249C0.025 10.5999 0.025 10.6499 0.025 10.6996V10.7994C0.025 10.8494 0.05 10.8991 0.05 10.9489C0.075 10.9989 0.075 11.0489 0.1 11.0986C0.12475 11.1486 0.14975 11.1984 0.1995 11.2484C0.2245 11.2984 0.2745 11.3481 0.2995 11.3979C0.34925 11.4479 0.399 11.4979 0.449 11.5226C0.499 11.5726 0.54875 11.6226 0.5985 11.6474C0.798 11.8219 0.848 11.8719 1.0975 12.0214C1.1475 12.0464 1.17225 12.0714 1.22225 12.0964H1.24725V12.1464C1.24725 12.2209 1.27225 12.2709 1.297 12.3456C1.322 12.4206 1.347 12.4954 1.372 12.5451L1.4465 12.6949C1.4465 12.7199 1.4715 12.7199 1.4715 12.7449C1.4965 12.8196 1.5465 12.8694 1.5715 12.9194C1.62125 12.9694 1.64625 13.0441 1.696 13.0939L1.84575 13.2436L1.99525 13.3931H2.02025C2.07025 13.4431 2.12 13.4681 2.17 13.5181C2.22 13.5681 2.29475 13.5929 2.3445 13.6176C2.3945 13.6426 2.46925 13.6926 2.544 13.7176C2.594 13.7426 2.644 13.7674 2.7185 13.7674C2.7185 13.7674 2.7435 13.7674 2.7435 13.7924C2.7685 13.7924 2.8185 13.8174 2.8435 13.8174C2.8185 14.2661 2.8185 14.6901 2.8685 14.8399C2.943 15.0144 3.31725 14.4906 3.6665 13.9171C3.6165 14.4906 3.5915 15.1641 3.6665 15.3636C3.76625 15.5631 4.24 14.9146 4.689 14.2161C10.5252 12.8694 15.8628 16.9099 16.4365 22.6216C16.3365 21.7236 15.239 21.2249 14.7155 21.3496C14.466 21.9481 14.042 22.7464 13.3687 23.2201C13.4187 22.6713 13.3937 22.1226 13.2937 21.5741C13.1192 22.3224 12.77 23.0456 12.2712 23.6441C11.498 23.6941 10.7 23.3199 10.3007 22.7464C10.2757 22.7214 10.2507 22.6714 10.226 22.6464C10.201 22.5966 10.176 22.5219 10.151 22.4719C10.126 22.4219 10.1012 22.3471 10.1012 22.2974V21.9981C10.1012 21.9481 10.1262 21.8731 10.1512 21.8234C10.1762 21.7736 10.1763 21.6986 10.2013 21.6489C10.226 21.5989 10.251 21.5241 10.3007 21.4744C10.4505 21.0751 10.4505 20.7509 10.176 20.5764L10.0265 20.5014C10.0015 20.5014 9.9515 20.4766 9.9265 20.4766C9.9015 20.4766 9.87675 20.4516 9.85175 20.4516C9.802 20.4266 9.72725 20.4266 9.67725 20.4016C9.62725 20.3766 9.5525 20.3766 9.50275 20.3766C9.45275 20.3766 9.37775 20.3519 9.328 20.3519H9.2035C9.1285 20.3519 9.0785 20.3519 9.02875 20.3769C8.97875 20.3769 8.904 20.4019 8.85425 20.4019C8.80425 20.4269 8.7295 20.4269 8.6795 20.4519C8.62975 20.4766 8.57975 20.5016 8.505 20.5264L8.35525 20.6014C6.43475 21.8484 7.58225 24.7914 8.87925 25.6394C8.38025 25.7394 7.8815 25.8389 7.73175 25.9389L7.70675 25.9639C8.056 26.1881 8.43025 26.3629 8.82925 26.5124C9.353 26.6871 9.92675 26.8366 10.176 26.9116C10.8495 27.0611 11.548 27.1111 12.2463 27.0611C15.8878 26.8116 18.8808 24.0184 19.4293 20.3769C19.4543 20.4519 19.4542 20.5264 19.4792 20.6014C19.5042 20.7509 19.5293 20.9006 19.5543 21.0751C19.5793 21.1501 19.5793 21.2249 19.5793 21.2996V21.3246C19.5793 21.3996 19.604 21.4744 19.604 21.5491C19.604 21.6489 19.629 21.7236 19.629 21.8234V22.8709C19.629 22.9459 19.604 22.9959 19.604 23.0706V23.1454C19.604 23.2204 19.579 23.2951 19.579 23.3949C19.554 23.4696 19.554 23.5444 19.529 23.6194V23.6444C19.504 23.7191 19.504 23.7939 19.4792 23.8686V23.8936C19.4542 23.9686 19.4543 24.0434 19.4293 24.1181V24.1431L19.3545 24.3676V24.3926C19.3295 24.4674 19.3045 24.5671 19.2798 24.6419C19.2548 24.7169 19.2298 24.7916 19.1798 24.8914C19.155 24.9661 19.13 25.0659 19.0802 25.1406C19.0552 25.2156 19.0052 25.2904 18.9802 25.3901C18.9555 25.4651 18.9055 25.5399 18.8808 25.6146C18.8808 25.6396 18.8557 25.6646 18.8557 25.6646C18.8557 25.6646 18.8557 25.6896 18.8307 25.6896C18.307 26.7619 17.509 27.7096 16.5112 28.4579C16.4362 28.5079 16.3865 28.5579 16.3118 28.6076C16.2868 28.6326 16.2617 28.6326 16.2617 28.6576C16.2117 28.7074 16.137 28.7324 16.0872 28.7821L16.1122 28.8321C16.2367 28.8071 16.3368 28.8071 16.4613 28.7821C16.6858 28.7571 16.8853 28.7071 17.1098 28.6574C17.1598 28.6574 17.2348 28.6324 17.2845 28.6074C17.3345 28.6074 17.3593 28.5824 17.409 28.5824C17.4588 28.5824 17.534 28.5576 17.5837 28.5576C17.6337 28.5326 17.6835 28.5326 17.7332 28.5076C18.5565 28.3084 19.3545 28.0339 20.1278 27.7096C18.8058 29.5054 17.06 30.9521 15.0147 31.8996C15.9625 31.8249 16.9103 31.6754 17.833 31.4009C21.1466 30.4278 23.9428 28.1874 25.6147 25.1656C25.2657 27.0611 24.5173 28.8819 23.395 30.4781C24.1933 29.9544 24.9165 29.3306 25.59 28.6574C27.4355 26.7369 28.6575 24.2676 29.0567 21.6489C29.3312 22.9459 29.431 24.2926 29.3062 25.6146C35.2672 17.3091 29.805 8.70436 27.5105 6.43461C27.5105 6.40961 27.4855 6.40961 27.4855 6.38461C27.4855 6.48461 27.4855 6.58411 27.4605 6.68411C27.4355 6.88361 27.4105 7.05811 27.3855 7.23261C27.3357 7.40736 27.286 7.60686 27.236 7.78136C27.186 7.95611 27.1113 8.13061 27.0365 8.30511C26.9618 8.47961 26.8868 8.65436 26.787 8.80411C26.6873 8.95386 26.5875 9.12836 26.4877 9.27786C26.388 9.42736 26.2633 9.57711 26.1385 9.72686C26.014 9.87661 25.8893 10.0011 25.7395 10.1509C25.6645 10.2259 25.59 10.3006 25.4902 10.3504C25.4152 10.4004 25.3653 10.4504 25.2905 10.5249C25.141 10.6499 24.9912 10.7494 24.8167 10.8491C24.667 10.9491 24.4925 11.0489 24.318 11.1236L23.794 11.3481C23.6195 11.4229 23.445 11.4729 23.2703 11.5226C23.0958 11.5726 22.8963 11.6226 22.7215 11.6474C22.522 11.6724 22.3475 11.6974 22.173 11.7224C22.048 11.7224 21.8985 11.7471 21.7738 11.7471C21.5743 11.7471 21.3998 11.7221 21.2253 11.7221C21.0255 11.6971 20.851 11.6721 20.6765 11.6471C20.4873 11.624 20.3025 11.5737 20.1278 11.4976C20.3023 11.4726 20.5018 11.4726 20.6765 11.4229C20.876 11.3979 21.0505 11.3479 21.2253 11.2981C21.3998 11.2481 21.5993 11.1984 21.749 11.1236L22.2728 10.8991C22.4473 10.8241 22.597 10.7246 22.7715 10.6249C22.9212 10.5249 23.0958 10.4004 23.2455 10.3006C23.395 10.1756 23.5448 10.0511 23.6695 9.92636C23.819 9.80161 23.9438 9.65211 24.0685 9.52736C24.1933 9.37761 24.318 9.22811 24.4177 9.07836C24.4427 9.05336 24.4428 9.02836 24.4678 9.00336C24.5423 8.87886 24.642 8.72911 24.717 8.60461C24.8098 8.4433 24.893 8.27668 24.9662 8.10561C25.0412 7.93111 25.1163 7.75636 25.166 7.58186L25.3155 7.05811C25.3405 6.85861 25.3905 6.68411 25.3905 6.50936C25.4155 6.30986 25.4155 6.13536 25.4155 5.96061C25.4155 5.83611 25.4155 5.68636 25.3905 5.56161C25.3655 5.36211 25.3405 5.18761 25.3155 5.01286C25.2905 4.81336 25.2405 4.63886 25.1908 4.46411C25.1408 4.28961 25.066 4.11511 25.0163 3.94036C24.9413 3.76586 24.8665 3.59136 24.7917 3.44161C24.692 3.26711 24.6172 3.11736 24.5175 2.94286C24.4175 2.79311 24.293 2.64336 24.1933 2.49386C24.0685 2.34411 23.9438 2.21936 23.819 2.06986C23.7443 1.99486 23.6695 1.92011 23.5945 1.87036C23.2205 1.57111 22.8463 1.32161 22.4473 1.07211C22.3973 1.04711 22.3475 1.02211 22.2728 0.997109C21.9485 0.723109 21.6993 0.648109 21.45 0.548359Z" fill="#DF234F"/>
</g>
<defs>
<clipPath id="clip0_1369_239">
<rect width="32" height="32" fill="white"/>
</clipPath>
</defs>
</svg>
